<svg width="16" height="19" viewBox="0 0 16 19" fill="none" xmlns="http://www.w3.org/2000/svg">
<path d="M15.75 12.4818C15.75 13.2201 15.2578 13.8529 14.625 14.099V16.4193H14.9062C15.3633 16.4193 15.75 16.806 15.75 17.2631C15.75 17.7552 15.3633 18.1068 14.9062 18.1068H2.8125C1.23047 18.1068 0 16.8763 0 15.2943V2.91931C0 1.37244 1.23047 0.106812 2.8125 0.106812H14.0625C14.9766 0.106812 15.75 0.880249 15.75 1.79431V12.4818ZM12.9375 16.4193V14.1693H2.8125C2.17969 14.1693 1.6875 14.6967 1.6875 15.2943C1.6875 15.9271 2.17969 16.4193 2.8125 16.4193H12.9375ZM14.0625 12.4818V1.79431H2.8125C2.17969 1.79431 1.6875 2.32166 1.6875 2.91931V12.7279C2.00391 12.5873 2.39062 12.4818 2.8125 12.4818H14.0625ZM5.34375 5.73181C4.85156 5.73181 4.5 5.38025 4.5 4.88806C4.5 4.43103 4.85156 4.04431 5.34375 4.04431H11.5312C11.9883 4.04431 12.375 4.43103 12.375 4.88806C12.375 5.38025 11.9883 5.73181 11.5312 5.73181H5.34375ZM5.34375 8.54431C4.85156 8.54431 4.5 8.19275 4.5 7.70056C4.5 7.24353 4.85156 6.85681 5.34375 6.85681H11.5312C11.9883 6.85681 12.375 7.24353 12.375 7.70056C12.375 8.19275 11.9883 8.54431 11.5312 8.54431H5.34375Z" fill="#7F7A7A"/>
</svg>
