<svg width="19" height="19" viewBox="0 0 19 19" fill="none" xmlns="http://www.w3.org/2000/svg">
<path d="M10 16.84C14.0078 16.84 17.3125 13.5704 17.3125 9.52747C17.3125 5.51965 14.0078 2.21497 10 2.21497C5.95703 2.21497 2.6875 5.51965 2.6875 9.52747C2.6875 9.7384 2.6875 9.91418 2.6875 10.1251L1.03516 10.6173C1 10.2657 1 9.91418 1 9.52747C1 4.57043 5.00781 0.527466 10 0.527466C14.957 0.527466 19 4.57043 19 9.52747C19 14.5197 14.957 18.5275 10 18.5275C9.61328 18.5275 9.26172 18.5275 8.91016 18.4923L9.40234 16.84C9.61328 16.84 9.78906 16.84 10 16.84ZM10.3867 13.465C12.3906 13.254 13.9375 11.5665 13.9375 9.52747C13.9375 7.38293 12.1445 5.58997 10 5.58997C7.96094 5.58997 6.27344 7.13684 6.0625 9.14075L4.375 9.63293C4.375 9.59778 4.375 9.56262 4.375 9.52747C4.375 6.43372 6.87109 3.90247 10 3.90247C13.0938 3.90247 15.625 6.43372 15.625 9.52747C15.625 12.6564 13.0938 15.1525 10 15.1525C9.96484 15.1525 9.92969 15.1525 9.89453 15.1525L10.3867 13.465ZM2.37109 11.3907L9.54297 9.28137C10 9.14075 10.3867 9.52747 10.2461 9.9845L8.13672 17.1564C7.99609 17.6486 7.32812 17.7189 7.08203 17.2618L6.09766 15.2579C6.0625 15.1876 6.02734 15.1525 5.99219 15.1173L2.89844 18.2111C2.47656 18.6681 1.73828 18.6681 1.31641 18.2111C0.859375 17.7892 0.859375 17.0509 1.31641 16.629L4.41016 13.5353C4.375 13.5001 4.33984 13.465 4.26953 13.4298L2.26562 12.4454C1.80859 12.1993 1.87891 11.5314 2.37109 11.3907Z" fill="#7F7A7A"/>
</svg>
