<svg width="17" height="17" viewBox="0 0 17 17" fill="none" xmlns="http://www.w3.org/2000/svg">
<path d="M8.90625 0.120361C9.87109 0.120361 10.6875 0.936768 10.6875 1.90161V14.9641C10.6875 15.9661 9.87109 16.7454 8.90625 16.7454H7.71875C6.7168 16.7454 5.9375 15.9661 5.9375 14.9641V1.90161C5.9375 0.936768 6.7168 0.120361 7.71875 0.120361H8.90625ZM8.90625 1.90161H7.71875V14.9641H8.90625V1.90161ZM2.96875 7.24536C3.93359 7.24536 4.75 8.06177 4.75 9.02661V14.9641C4.75 15.9661 3.93359 16.7454 2.96875 16.7454H1.78125C0.779297 16.7454 0 15.9661 0 14.9641V9.02661C0 8.06177 0.779297 7.24536 1.78125 7.24536H2.96875ZM2.96875 9.02661H1.78125V14.9641H2.96875V9.02661ZM11.875 4.27661C11.875 3.31177 12.6543 2.49536 13.6562 2.49536H14.8438C15.8086 2.49536 16.625 3.31177 16.625 4.27661V14.9641C16.625 15.9661 15.8086 16.7454 14.8438 16.7454H13.6562C12.6543 16.7454 11.875 15.9661 11.875 14.9641V4.27661ZM13.6562 14.9641H14.8438V4.27661H13.6562V14.9641Z" fill="#7F7A7A"/>
</svg>
