<svg width="19" height="20" viewBox="0 0 19 20" fill="none" xmlns="http://www.w3.org/2000/svg">
<path d="M8.60938 5.24585C8.60938 4.76343 8.98047 4.35522 9.5 4.35522C9.98242 4.35522 10.3906 4.76343 10.3906 5.24585V9.84741L13.5449 11.9255C13.9531 12.2224 14.0645 12.7791 13.7676 13.1873C13.5078 13.5955 12.9512 13.7068 12.543 13.4099L8.98047 11.0349C8.75781 10.8865 8.60938 10.5896 8.60938 10.2927V5.24585ZM9.5 0.792725C14.7324 0.792725 19 5.0603 19 10.2927C19 15.5623 14.7324 19.7927 9.5 19.7927C4.23047 19.7927 0 15.5623 0 10.2927C0 5.0603 4.23047 0.792725 9.5 0.792725ZM1.78125 10.2927C1.78125 14.5603 5.23242 18.0115 9.5 18.0115C13.7305 18.0115 17.2188 14.5603 17.2188 10.2927C17.2188 6.06226 13.7305 2.57397 9.5 2.57397C5.23242 2.57397 1.78125 6.06226 1.78125 10.2927Z" fill="#7F7A7A"/>
</svg>
