<svg width="19" height="20" viewBox="0 0 19 20" fill="none" xmlns="http://www.w3.org/2000/svg">
<path d="M11.5781 13.1356C11.5781 14.286 10.6133 15.2137 9.5 15.2137C8.34961 15.2137 7.42188 14.286 7.42188 13.1356C7.42188 12.3192 7.9043 11.6141 8.57227 11.2802V4.52625C8.57227 4.04382 8.98047 3.63562 9.46289 3.63562C9.98242 3.63562 10.3906 4.04382 10.3906 4.52625V11.2802C11.0586 11.6141 11.5781 12.3192 11.5781 13.1356ZM4.75 6.01062C4.75 5.37976 5.26953 4.82312 5.9375 4.82312C6.56836 4.82312 7.125 5.37976 7.125 6.01062C7.125 6.67859 6.56836 7.19812 5.9375 7.19812C5.26953 7.19812 4.75 6.67859 4.75 6.01062ZM5.34375 9.57312C5.34375 10.2411 4.78711 10.7606 4.15625 10.7606C3.48828 10.7606 2.96875 10.2411 2.96875 9.57312C2.96875 8.94226 3.48828 8.38562 4.15625 8.38562C4.78711 8.38562 5.34375 8.94226 5.34375 9.57312ZM13.6562 9.57312C13.6562 8.94226 14.1758 8.38562 14.8438 8.38562C15.4746 8.38562 16.0312 8.94226 16.0312 9.57312C16.0312 10.2411 15.4746 10.7606 14.8438 10.7606C14.1758 10.7606 13.6562 10.2411 13.6562 9.57312ZM14.25 6.01062C14.25 6.67859 13.6934 7.19812 13.0625 7.19812C12.3945 7.19812 11.875 6.67859 11.875 6.01062C11.875 5.37976 12.3945 4.82312 13.0625 4.82312C13.6934 4.82312 14.25 5.37976 14.25 6.01062ZM0 9.57312C0 4.3407 4.23047 0.0731201 9.5 0.0731201C14.7324 0.0731201 19 4.3407 19 9.57312C19 14.8427 14.7324 19.0731 9.5 19.0731C4.23047 19.0731 0 14.8427 0 9.57312ZM9.5 17.2919C13.7305 17.2919 17.2188 13.8407 17.2188 9.57312C17.2188 5.34265 13.7305 1.85437 9.5 1.85437C5.23242 1.85437 1.78125 5.34265 1.78125 9.57312C1.78125 13.8407 5.23242 17.2919 9.5 17.2919Z" fill="#7F7A7A"/>
</svg>
