<svg width="24" height="19" viewBox="0 0 24 19" fill="none" xmlns="http://www.w3.org/2000/svg">
<path d="M21.4214 5.07703C22.3354 5.07703 23.1089 5.85046 23.1089 6.76453V13.5145C23.1089 14.4637 22.3354 15.202 21.4214 15.202H15.2339V13.5145H21.4214V6.76453H10.1714V7.32703H8.48389V6.76453C8.48389 5.85046 9.22217 5.07703 10.1714 5.07703H21.4214ZM4.54639 2.26453V7.32703H2.85889V2.26453C2.85889 1.35046 3.59717 0.577026 4.54639 0.577026H15.7964C16.7104 0.577026 17.4839 1.35046 17.4839 2.26453V3.95203H15.7964V2.26453H4.54639ZM12.4214 8.45203C13.3354 8.45203 14.1089 9.22546 14.1089 10.1395V16.8895C14.1089 17.8387 13.3354 18.577 12.4214 18.577H2.29639C1.34717 18.577 0.608887 17.8387 0.608887 16.8895V10.1395C0.608887 9.22546 1.34717 8.45203 2.29639 8.45203H12.4214ZM12.4214 16.8895V12.6708C11.894 13.0575 9.60889 14.745 9.60889 14.745C9.08154 15.1317 8.23779 15.7645 7.35889 15.7645C6.44482 15.7645 5.60107 15.1317 5.10889 14.745C5.10889 14.745 2.78857 13.0575 2.29639 12.6708V16.8895H12.4214ZM12.4214 10.6317V10.1395H2.29639V10.5262C2.3667 10.5614 6.12842 13.3739 6.23389 13.4794C6.55029 13.7255 7.00732 14.077 7.35889 14.077C7.60498 14.077 7.9917 13.8309 8.27295 13.6552C8.48389 13.5145 12.3159 10.702 12.4214 10.6317ZM18.0464 7.88953H20.2964V10.1395H18.0464V7.88953Z" fill="#7F7A7A"/>
</svg>
