<svg width="19" height="20" viewBox="0 0 19 20" fill="none" xmlns="http://www.w3.org/2000/svg">
<path d="M5.9375 10.4513C5.9375 8.4845 7.49609 6.88879 9.5 6.88879C11.4668 6.88879 13.0625 8.4845 13.0625 10.4513C13.0625 12.4181 11.4668 14.0138 9.5 14.0138C7.49609 14.0138 5.9375 12.4181 5.9375 10.4513ZM9.5 8.67004C8.49805 8.67004 7.71875 9.48645 7.71875 10.4513C7.71875 11.4532 8.49805 12.2325 9.5 12.2325C10.4648 12.2325 11.2812 11.4532 11.2812 10.4513C11.2812 9.48645 10.4648 8.67004 9.5 8.67004ZM10.873 0.951294C11.6895 0.951294 12.3945 1.54504 12.5801 2.32434L12.877 3.54895C13.2109 3.69739 13.5078 3.88293 13.7676 4.06848L14.9922 3.69739C15.7715 3.47473 16.625 3.80872 17.0332 4.51379L18.4062 6.9259C18.8145 7.63098 18.666 8.52161 18.0723 9.07825L17.1816 9.93176C17.1816 10.1173 17.2188 10.3029 17.2188 10.4513C17.2188 10.6368 17.1816 10.8224 17.1816 10.9708L18.0723 11.8615C18.666 12.4181 18.8145 13.3087 18.4062 14.0138L17.0332 16.4259C16.625 17.131 15.7715 17.465 14.9922 17.2423L13.7676 16.8712C13.5078 17.0568 13.2109 17.2423 12.877 17.3907L12.5801 18.6154C12.3945 19.3947 11.6895 19.9513 10.873 19.9513H8.08984C7.27344 19.9513 6.56836 19.3947 6.38281 18.6154L6.08594 17.3907C5.75195 17.2423 5.45508 17.0568 5.19531 16.8712L3.9707 17.2423C3.19141 17.465 2.33789 17.131 1.92969 16.4259L0.556641 14.0138C0.148438 13.3087 0.296875 12.4181 0.890625 11.8615L1.78125 10.9708C1.78125 10.8224 1.78125 10.6368 1.78125 10.4513C1.78125 10.3029 1.78125 10.1173 1.78125 9.93176L0.890625 9.07825C0.296875 8.52161 0.148438 7.63098 0.556641 6.9259L1.92969 4.51379C2.33789 3.80872 3.19141 3.47473 3.9707 3.69739L5.19531 4.06848C5.45508 3.88293 5.75195 3.69739 6.08594 3.54895L6.38281 2.32434C6.56836 1.54504 7.27344 0.951294 8.08984 0.951294H10.873ZM7.60742 4.81067L7.19922 4.99622C6.7168 5.18176 6.27148 5.44153 5.90039 5.7384L5.5293 6.03528L3.48828 5.40442L2.11523 7.81653L3.63672 9.26379L3.59961 9.70911C3.5625 9.96887 3.5625 10.2286 3.5625 10.4513C3.5625 10.7111 3.5625 10.9708 3.59961 11.2306L3.63672 11.6759L2.11523 13.1232L3.48828 15.5353L5.5293 14.9044L5.90039 15.2013C6.27148 15.4982 6.7168 15.7579 7.19922 15.9435L7.60742 16.129L8.08984 18.17H10.873L11.3555 16.129L11.7637 15.9435C12.2461 15.7579 12.6914 15.4982 13.0625 15.2013L13.4336 14.9044L15.4746 15.5353L16.8477 13.1232L15.3262 11.6759L15.3633 11.2306C15.4004 10.9708 15.4375 10.7111 15.4375 10.4513C15.4375 10.2286 15.4004 9.96887 15.3633 9.70911L15.3262 9.26379L16.8477 7.81653L15.4746 5.40442L13.4336 6.03528L13.0625 5.7384C12.6914 5.44153 12.2461 5.18176 11.7637 4.99622L11.3555 4.81067L10.873 2.73254H8.08984L7.60742 4.81067Z" fill="#7F7A7A"/>
</svg>
