<svg width="18" height="19" viewBox="0 0 18 19" fill="none" xmlns="http://www.w3.org/2000/svg">
<path d="M12.0938 4.18457C12.5508 4.18457 12.9375 4.57129 12.9375 5.02832V9.52832C12.9375 10.0205 12.5508 10.3721 12.0938 10.3721C11.6016 10.3721 11.25 10.0205 11.25 9.52832V7.06738L7.875 10.4424C7.52344 10.7939 6.99609 10.7939 6.67969 10.4424C6.32812 10.126 6.32812 9.59863 6.67969 9.24707L10.0547 5.87207H7.59375C7.10156 5.87207 6.75 5.52051 6.75 5.02832C6.75 4.57129 7.10156 4.18457 7.59375 4.18457H12.0938ZM15.75 0.24707C16.9805 0.24707 18 1.2666 18 2.49707V12.6221C18 13.8525 16.9805 14.8721 15.75 14.8721H10.6875L6.29297 18.1416C6.01172 18.3525 5.625 18.1416 5.625 17.8252V14.8018H2.25C0.984375 14.8018 0 13.8174 0 12.5869V2.49707C0 1.2666 0.984375 0.24707 2.25 0.24707H15.75ZM16.3125 12.6221V2.49707C16.3125 2.21582 16.0312 1.93457 15.75 1.93457H2.25C1.93359 1.93457 1.6875 2.21582 1.6875 2.49707V12.6221C1.6875 12.9385 1.93359 13.1846 2.25 13.1846H7.3125V15.2939L10.125 13.1846H15.75C16.0312 13.1846 16.3125 12.9385 16.3125 12.6221Z" fill="#7F7A7A"/>
</svg>
