<svg width="19" height="19" viewBox="0 0 19 19" fill="none" xmlns="http://www.w3.org/2000/svg">
<path d="M17.7188 16.9458C18.0703 17.2974 18.0703 17.8247 17.7188 18.1411C17.5781 18.3169 17.3672 18.3872 17.1562 18.3872C16.9102 18.3872 16.6992 18.3169 16.5234 18.1411L11.8125 13.4302C10.5469 14.4497 8.96484 15.0122 7.27734 15.0122C3.26953 15.0122 0 11.7427 0 7.69971C0 3.69189 3.23438 0.387207 7.27734 0.387207C11.2852 0.387207 14.5898 3.69189 14.5898 7.69971C14.5898 9.42236 14.0273 11.0044 13.0078 12.2349L17.7188 16.9458ZM1.6875 7.69971C1.6875 10.8286 4.18359 13.3247 7.3125 13.3247C10.4062 13.3247 12.9375 10.8286 12.9375 7.69971C12.9375 4.60596 10.4062 2.07471 7.3125 2.07471C4.18359 2.07471 1.6875 4.60596 1.6875 7.69971Z" fill="#7F7A7A"/>
</svg>
